<?xml version="1.0" encoding="utf-8"?>
<svg width="414" height="303" viewBox="0 0 414 303" xmlns="http://www.w3.org/2000/svg">
<rect id="frame" x="0" y="0" width="414" height="303" fill="#fff" stroke="none" stroke-width="0"/>

<!-- Association télécharge -->
<g class="page_0_SELuepdO diagram_page" visibility="visible">
	<line x1="48" y1="160" x2="48" y2="51" stroke="#d6604d" stroke-width="2"/>
	<text x="53" y="93" fill="#4d4d4d" font-family="Verdana" font-size="12">0,N</text>
	<line x1="143" y1="51" x2="48" y2="51" stroke="#d6604d" stroke-width="2"/>
	<text x="93" y="68" fill="#4d4d4d" font-family="Verdana" font-size="12">1,1</text>
	<g>
		<path d="M73 26 a14 14 90 0 1 14 14 V51 h-78 V40 a14 14 90 0 1 14 -14" fill="#f4a582" stroke="#f4a582" stroke-width="0"/>
		<path d="M87 51 v11 a14 14 90 0 1 -14 14 H23 a14 14 90 0 1 -14 -14 V51 H78" fill="#fddbc7" stroke="#fddbc7" stroke-width="0"/>
		<rect x="9" y="26" width="78" height="50" fill="none" rx="14" stroke="#d6604d" stroke-width="2"/>
		<line x1="9" y1="51" x2="87" y2="51" stroke="#d6604d" stroke-width="1"/>
		<text x="16" y="43.75" fill="#000" font-family="Verdana" font-size="12">télécharge</text>
	</g>
</g>

<!-- Association peut contenir -->
<g class="page_0_SELuepdO diagram_page" visibility="visible">
	<line x1="247" y1="160" x2="247" y2="51" stroke="#d6604d" stroke-width="2"/>
	<text x="252" y="110" fill="#4d4d4d" font-family="Verdana" font-size="12">0,N</text>
	<line x1="143" y1="51" x2="247" y2="51" stroke="#d6604d" stroke-width="2"/>
	<text x="172" y="68" fill="#4d4d4d" font-family="Verdana" font-size="12">0,N</text>
	<g>
		<path d="M281 26 a14 14 90 0 1 14 14 V51 h-96 V40 a14 14 90 0 1 14 -14" fill="#f4a582" stroke="#f4a582" stroke-width="0"/>
		<path d="M295 51 v11 a14 14 90 0 1 -14 14 H213 a14 14 90 0 1 -14 -14 V51 H96" fill="#fddbc7" stroke="#fddbc7" stroke-width="0"/>
		<rect x="199" y="26" width="96" height="50" fill="none" rx="14" stroke="#d6604d" stroke-width="2"/>
		<line x1="199" y1="51" x2="295" y2="51" stroke="#d6604d" stroke-width="1"/>
		<text x="207" y="43.75" fill="#000" font-family="Verdana" font-size="12">peut contenir</text>
	</g>
</g>

<!-- Association rédige -->
<g class="page_0_SELuepdO diagram_page" visibility="visible">
	<line x1="48" y1="160" x2="143" y2="160" stroke="#d6604d" stroke-width="2"/>
	<text x="89" y="177" fill="#4d4d4d" font-family="Verdana" font-size="12">0,N</text>
	<line x1="247" y1="160" x2="143" y2="160" stroke="#d6604d" stroke-width="2"/>
	<text x="182" y="177" fill="#4d4d4d" font-family="Verdana" font-size="12">1,1</text>
	<g>
		<path d="M156 135 a14 14 90 0 1 14 14 V160 h-54 V149 a14 14 90 0 1 14 -14" fill="#f4a582" stroke="#f4a582" stroke-width="0"/>
		<path d="M170 160 v11 a14 14 90 0 1 -14 14 H130 a14 14 90 0 1 -14 -14 V160 H54" fill="#fddbc7" stroke="#fddbc7" stroke-width="0"/>
		<rect x="116" y="135" width="54" height="50" fill="none" rx="14" stroke="#d6604d" stroke-width="2"/>
		<line x1="116" y1="160" x2="170" y2="160" stroke="#d6604d" stroke-width="1"/>
		<text x="124" y="152.75" fill="#000" font-family="Verdana" font-size="12">rédige</text>
	</g>
</g>

<!-- Association contient -->
<g class="page_0_SELuepdO diagram_page" visibility="visible">
	<line x1="247" y1="160" x2="366" y2="160" stroke="#d6604d" stroke-width="2"/>
	<text x="291" y="177" fill="#4d4d4d" font-family="Verdana" font-size="12">1,1</text>
	<line x1="366" y1="51" x2="366" y2="160" stroke="#d6604d" stroke-width="2"/>
	<text x="371" y="110" fill="#4d4d4d" font-family="Verdana" font-size="12">0,N</text>
	<g>
		<path d="M384 135 a14 14 90 0 1 14 14 V160 h-64 V149 a14 14 90 0 1 14 -14" fill="#f4a582" stroke="#f4a582" stroke-width="0"/>
		<path d="M398 160 v11 a14 14 90 0 1 -14 14 H348 a14 14 90 0 1 -14 -14 V160 H64" fill="#fddbc7" stroke="#fddbc7" stroke-width="0"/>
		<rect x="334" y="135" width="64" height="50" fill="none" rx="14" stroke="#d6604d" stroke-width="2"/>
		<line x1="334" y1="160" x2="398" y2="160" stroke="#d6604d" stroke-width="1"/>
		<text x="341" y="152.75" fill="#000" font-family="Verdana" font-size="12">contient</text>
	</g>
</g>

<!-- Association écrit -->
<g class="page_0_SELuepdO diagram_page" visibility="visible">
	<line x1="48" y1="160" x2="48" y2="269" stroke="#d6604d" stroke-width="2"/>
	<text x="53" y="236" fill="#4d4d4d" font-family="Verdana" font-size="12">0,N</text>
	<line x1="143" y1="269" x2="48" y2="269" stroke="#d6604d" stroke-width="2"/>
	<text x="83" y="286" fill="#4d4d4d" font-family="Verdana" font-size="12">1,1</text>
	<g>
		<path d="M55 244 a14 14 90 0 1 14 14 V269 h-42 V258 a14 14 90 0 1 14 -14" fill="#f4a582" stroke="#f4a582" stroke-width="0"/>
		<path d="M69 269 v11 a14 14 90 0 1 -14 14 H41 a14 14 90 0 1 -14 -14 V269 H42" fill="#fddbc7" stroke="#fddbc7" stroke-width="0"/>
		<rect x="27" y="244" width="42" height="50" fill="none" rx="14" stroke="#d6604d" stroke-width="2"/>
		<line x1="27" y1="269" x2="69" y2="269" stroke="#d6604d" stroke-width="1"/>
		<text x="34" y="261.75" fill="#000" font-family="Verdana" font-size="12">écrit</text>
	</g>
</g>

<!-- Association peut avoir -->
<g class="page_0_SELuepdO diagram_page" visibility="visible">
	<line x1="247" y1="160" x2="247" y2="269" stroke="#d6604d" stroke-width="2"/>
	<text x="252" y="219" fill="#4d4d4d" font-family="Verdana" font-size="12">0,N</text>
	<line x1="143" y1="269" x2="247" y2="269" stroke="#d6604d" stroke-width="2"/>
	<text x="182" y="286" fill="#4d4d4d" font-family="Verdana" font-size="12">1,1</text>
	<g>
		<path d="M271 244 a14 14 90 0 1 14 14 V269 h-76 V258 a14 14 90 0 1 14 -14" fill="#f4a582" stroke="#f4a582" stroke-width="0"/>
		<path d="M285 269 v11 a14 14 90 0 1 -14 14 H223 a14 14 90 0 1 -14 -14 V269 H76" fill="#fddbc7" stroke="#fddbc7" stroke-width="0"/>
		<rect x="209" y="244" width="76" height="50" fill="none" rx="14" stroke="#d6604d" stroke-width="2"/>
		<line x1="209" y1="269" x2="285" y2="269" stroke="#d6604d" stroke-width="1"/>
		<text x="216" y="261.75" fill="#000" font-family="Verdana" font-size="12">peut avoir</text>
	</g>
</g>

<!-- Entity media -->
<g class="page_0_SELuepdO diagram_page" visibility="visible">
	<g>
		<rect x="119" y="17" width="48" height="25" fill="#bababa" stroke="#bababa" stroke-width="0" opacity="1"/>
		<rect x="119" y="42" width="48" height="43" fill="#e0e0e0" stroke="#e0e0e0" stroke-width="0" opacity="1"/>
		<rect x="119" y="17" width="48" height="68" fill="none" stroke="#878787" stroke-width="2" opacity="1"/>
		<line x1="119" y1="42" x2="167" y2="42" stroke="#878787" stroke-width="1"/>
	</g>
	<text x="124" y="34.75" fill="#000" font-family="Verdana" font-size="12">media</text>
	<text x="124" y="59.8" fill="#000" font-family="Verdana" font-size="12">name</text>
	<line x1="124" y1="62" x2="159" y2="62" stroke="#000" stroke-width="1"/>
	<text x="124" y="76.8" fill="#000" font-family="Verdana" font-size="12">type</text>
</g>

<!-- Entity category -->
<g class="page_0_SELuepdO diagram_page" visibility="visible">
	<g>
		<rect x="327" y="9" width="78" height="25" fill="#bababa" stroke="#bababa" stroke-width="0" opacity="1"/>
		<rect x="327" y="34" width="78" height="59" fill="#e0e0e0" stroke="#e0e0e0" stroke-width="0" opacity="1"/>
		<rect x="327" y="9" width="78" height="84" fill="none" stroke="#878787" stroke-width="2" opacity="1"/>
		<line x1="327" y1="34" x2="405" y2="34" stroke="#878787" stroke-width="1"/>
	</g>
	<text x="340" y="26.75" fill="#000" font-family="Verdana" font-size="12">category</text>
	<text x="332" y="51.8" fill="#000" font-family="Verdana" font-size="12">name</text>
	<line x1="332" y1="54" x2="367" y2="54" stroke="#000" stroke-width="1"/>
	<text x="332" y="68.8" fill="#000" font-family="Verdana" font-size="12">description</text>
	<text x="332" y="85.8" fill="#000" font-family="Verdana" font-size="12">name.1</text>
</g>

<!-- Entity user -->
<g class="page_0_SELuepdO diagram_page" visibility="visible">
	<g>
		<rect x="12" y="101" width="72" height="25" fill="#bababa" stroke="#bababa" stroke-width="0" opacity="1"/>
		<rect x="12" y="126" width="72" height="93" fill="#e0e0e0" stroke="#e0e0e0" stroke-width="0" opacity="1"/>
		<rect x="12" y="101" width="72" height="118" fill="none" stroke="#878787" stroke-width="2" opacity="1"/>
		<line x1="12" y1="126" x2="84" y2="126" stroke="#878787" stroke-width="1"/>
	</g>
	<text x="35" y="118.75" fill="#000" font-family="Verdana" font-size="12">user</text>
	<text x="17" y="143.8" fill="#000" font-family="Verdana" font-size="12">mail</text>
	<line x1="17" y1="146" x2="43" y2="146" stroke="#000" stroke-width="1"/>
	<text x="17" y="160.8" fill="#000" font-family="Verdana" font-size="12">username</text>
	<text x="17" y="177.8" fill="#000" font-family="Verdana" font-size="12">password</text>
	<text x="17" y="194.8" fill="#000" font-family="Verdana" font-size="12">role</text>
	<text x="17" y="211.8" fill="#000" font-family="Verdana" font-size="12">active</text>
</g>

<!-- Entity figure -->
<g class="page_0_SELuepdO diagram_page" visibility="visible">
	<g>
		<rect x="208" y="118" width="78" height="25" fill="#bababa" stroke="#bababa" stroke-width="0" opacity="1"/>
		<rect x="208" y="143" width="78" height="59" fill="#e0e0e0" stroke="#e0e0e0" stroke-width="0" opacity="1"/>
		<rect x="208" y="118" width="78" height="84" fill="none" stroke="#878787" stroke-width="2" opacity="1"/>
		<line x1="208" y1="143" x2="286" y2="143" stroke="#878787" stroke-width="1"/>
	</g>
	<text x="229" y="135.75" fill="#000" font-family="Verdana" font-size="12">figure</text>
	<text x="213" y="160.8" fill="#000" font-family="Verdana" font-size="12">name</text>
	<line x1="213" y1="163" x2="248" y2="163" stroke="#000" stroke-width="1"/>
	<text x="213" y="177.8" fill="#000" font-family="Verdana" font-size="12">description</text>
	<text x="213" y="194.8" fill="#000" font-family="Verdana" font-size="12">name.1</text>
</g>

<!-- Entity comment -->
<g class="page_0_SELuepdO diagram_page" visibility="visible">
	<g>
		<rect x="109" y="244" width="68" height="25" fill="#bababa" stroke="#bababa" stroke-width="0" opacity="1"/>
		<rect x="109" y="269" width="68" height="25" fill="#e0e0e0" stroke="#e0e0e0" stroke-width="0" opacity="1"/>
		<rect x="109" y="244" width="68" height="50" fill="none" stroke="#878787" stroke-width="2" opacity="1"/>
		<line x1="109" y1="269" x2="177" y2="269" stroke="#878787" stroke-width="1"/>
	</g>
	<text x="115" y="261.75" fill="#000" font-family="Verdana" font-size="12">comment</text>
	<text x="114" y="286.8" fill="#000" font-family="Verdana" font-size="12">text</text>
	<line x1="114" y1="289" x2="139" y2="289" stroke="#000" stroke-width="1"/>
</g>
</svg>